<svg width="35" height="35" viewBox="0 0 35 35" fill="none" xmlns="http://www.w3.org/2000/svg">
<path d="M23.7354 21.7354L27.1979 5C27.1979 5 21.1386 6.15417 21.1386 8.4625C21.1386 9.90521 23.4469 10.7708 22.5813 11.6365C21.7156 12.5021 18.5417 13.3677 18.5417 15.6761C18.5417 17.1188 19.4881 18.1921 18.5417 19.1386C17.6761 20.0042 16.8104 19.5506 15.3677 19.1386C13.7519 18.6769 10.4625 18.2729 9.30834 18.5615C8.15417 18.85 7 19.4271 7 21.1583C7 22.1105 7.57708 23.1781 9.01979 23.4667C10.4625 23.7552 12.1938 22.3125 14.5021 22.3125C16.8104 22.3125 19.6958 24.0438 21.4271 24.0438C23.1583 24.0438 23.7354 21.7354 23.7354 21.7354Z" stroke="currentColor" stroke-width="1.4" stroke-linejoin="round"/>
<path d="M9.3084 23.4668L7.57715 28.0835H26.6209L23.1584 23.4668" stroke="currentColor" stroke-width="1.4" stroke-linejoin="round"/>
</svg>
