<svg width="35" height="35" viewBox="0 0 35 35" fill="none" xmlns="http://www.w3.org/2000/svg">
<path d="M13.0396 19.4271L9 28.0834M12.4625 9.61668C12.4625 9.61668 13.6167 8.39211 13.6167 7.30834C13.6167 5.76983 12.4625 5 12.4625 5M17.0792 9.61668C17.0792 9.61668 18.2334 8.39211 18.2334 7.30834C18.2334 5.76983 17.0792 5 17.0792 5M21.6959 9.61668C21.6959 9.61668 22.85 8.39211 22.85 7.30834C22.85 5.76983 21.6959 5 21.6959 5" stroke="currentColor" stroke-width="1.5" stroke-linecap="round" stroke-linejoin="round"/>
<path d="M22.2728 22.8896H11.8853" stroke="currentColor" stroke-width="1.5" stroke-linejoin="round"/>
<path d="M21.1189 19.4268L23.5427 24.6205M24.5814 28.083C25.0406 28.083 25.4809 27.9006 25.8056 27.576C26.1303 27.2513 26.3127 26.8109 26.3127 26.3518C26.3127 25.8926 26.1303 25.4523 25.8056 25.1276C25.4809 24.8029 25.0406 24.6205 24.5814 24.6205C24.1223 24.6205 23.6819 24.8029 23.3572 25.1276C23.0326 25.4523 22.8502 25.8926 22.8502 26.3518C22.8502 26.8109 23.0326 27.2513 23.3572 27.576C23.6819 27.9006 24.1223 28.083 24.5814 28.083Z" stroke="currentColor" stroke-width="1.5" stroke-linecap="round" stroke-linejoin="round"/>
<path d="M17.0791 20.0042C19.1021 20.0044 21.0516 19.2457 22.5422 17.8779C24.0328 16.5102 24.956 14.633 25.1294 12.6175C25.1354 12.5275 25.1225 12.4372 25.0917 12.3524C25.0608 12.2676 25.0126 12.1901 24.9502 12.125C24.8878 12.0599 24.8125 12.0084 24.7291 11.974C24.6457 11.9396 24.556 11.9229 24.4658 11.925H9.69241C9.6022 11.9229 9.51254 11.9396 9.42914 11.974C9.34574 12.0084 9.27043 12.0599 9.208 12.125C9.14556 12.1901 9.09738 12.2676 9.06653 12.3524C9.03567 12.4372 9.02281 12.5275 9.02876 12.6175C9.20216 14.633 10.1254 16.5102 11.616 17.8779C13.1066 19.2457 15.0561 20.0044 17.0791 20.0042Z" stroke="currentColor" stroke-width="1.5"/>
</svg>
