<svg width="35" height="35" viewBox="0 0 35 35" fill="none" xmlns="http://www.w3.org/2000/svg">
<path d="M28.8272 15.6014L27.0588 15.0099V8.66364C27.0588 8.20795 26.8781 7.77092 26.5563 7.4487C26.2346 7.12648 25.7982 6.94546 25.3431 6.94546H18.2353V4.73636C18.2353 4.54107 18.1578 4.35377 18.0199 4.21568C17.882 4.07758 17.695 4 17.5 4C17.305 4 17.118 4.07758 16.9801 4.21568C16.8422 4.35377 16.7647 4.54107 16.7647 4.73636V6.94546H9.65686C9.20184 6.94546 8.76544 7.12648 8.44369 7.4487C8.12194 7.77092 7.94118 8.20795 7.94118 8.66364V15.0099L6.17279 15.6014C5.83108 15.7156 5.53391 15.9345 5.32341 16.2273C5.11291 16.52 4.99976 16.8717 5 17.2325V21.4396C5.00017 21.5076 5.00965 21.5753 5.02819 21.6408C6.91667 28.2681 15.4252 30.5631 17.1115 30.9558C17.3672 31.0147 17.6328 31.0147 17.8885 30.9558C19.5748 30.5631 28.0833 28.2706 29.9718 21.6408C29.9903 21.5753 29.9998 21.5076 30 21.4396V17.2325C30.0002 16.8717 29.8871 16.52 29.6766 16.2273C29.4661 15.9345 29.1689 15.7156 28.8272 15.6014ZM9.41177 8.66364C9.41177 8.59854 9.43759 8.53611 9.48355 8.49008C9.52952 8.44404 9.59186 8.41818 9.65686 8.41818H25.3431C25.4081 8.41818 25.4705 8.44404 25.5164 8.49008C25.5624 8.53611 25.5882 8.59854 25.5882 8.66364V14.5177L17.7328 11.8926C17.5817 11.8421 17.4183 11.8421 17.2672 11.8926L9.41177 14.5177V8.66364ZM28.5294 21.334C27.81 23.7419 25.9559 25.789 23.0147 27.4164C21.2943 28.3549 19.4589 29.0645 17.5551 29.5273C17.5189 29.5357 17.4811 29.5357 17.4449 29.5273C15.5411 29.0645 13.7057 28.3549 11.9853 27.4164C9.04412 25.789 7.1924 23.7419 6.47059 21.334V17.2325C6.47028 17.1806 6.48636 17.1301 6.51652 17.0879C6.54668 17.0458 6.58937 17.0144 6.63848 16.9981L16.7647 13.6132V22.4091C16.7647 22.6044 16.8422 22.7917 16.9801 22.9298C17.118 23.0679 17.305 23.1455 17.5 23.1455C17.695 23.1455 17.882 23.0679 18.0199 22.9298C18.1578 22.7917 18.2353 22.6044 18.2353 22.4091V13.6132L28.3615 16.9981C28.4106 17.0144 28.4533 17.0458 28.4835 17.0879C28.5136 17.1301 28.5297 17.1806 28.5294 17.2325V21.334Z" fill="currentColor"/>
</svg>
