<svg width="35" height="35" viewBox="0 0 35 35" fill="none" xmlns="http://www.w3.org/2000/svg">
<path d="M12.9515 27.2469C12.9272 27.2116 12.907 27.18 12.8902 27.1518C12.9133 27.1334 12.9409 27.1115 12.9726 27.0865C13.0821 27 13.2406 26.876 13.4352 26.727C13.825 26.4284 14.3567 26.0317 14.9272 25.6364C15.5005 25.2391 16.0995 24.8526 16.6267 24.5685C16.848 24.4492 17.0476 24.3529 17.2205 24.2823H17.6667H24.3333C25.4074 24.2823 26.25 25.132 26.25 26.1194V27.4129C26.25 28.4003 25.4074 29.25 24.3333 29.25H16.3333C15.2337 29.25 14.402 28.7733 13.8266 28.2709C13.5389 28.0197 13.3226 27.7678 13.1794 27.5803C13.1082 27.487 13.0562 27.4111 13.0234 27.361C13.007 27.336 12.9956 27.3176 12.989 27.3068L12.9832 27.2972L12.9829 27.2967L12.9829 27.2967L12.9826 27.2962L12.9825 27.296L12.9689 27.2722L12.9515 27.2469ZM12.4379 22.4213C12.0539 22.856 11.6687 23.215 11.3487 23.4867C11.2699 23.2713 11.18 23.0231 11.0814 22.7467C10.7089 21.7028 10.2126 20.2581 9.71652 18.6541C8.71409 15.4123 7.75 11.6331 7.75 9.17413C7.75 6.70854 8.38405 5.64251 8.85557 5.18507C9.0962 4.95162 9.32561 4.84464 9.48077 4.79446C9.55947 4.76901 9.6204 4.75781 9.65504 4.753C9.66742 4.75129 9.67627 4.75042 9.68118 4.75H10.9927C10.9951 4.7501 10.9994 4.75032 11.0054 4.75073C11.0226 4.75192 11.0517 4.75463 11.0886 4.7606C11.166 4.77312 11.2574 4.79675 11.3393 4.83649C11.4189 4.87506 11.4722 4.92006 11.5069 4.97047C11.5375 5.01505 11.5833 5.10614 11.5833 5.29353C11.5833 5.57159 11.5074 5.67768 11.2693 6.01045C11.2073 6.09721 11.1342 6.19937 11.0485 6.32399C10.6376 6.92202 10.25 7.71495 10.25 9.17413C10.25 10.0105 10.5718 10.7918 10.9712 11.5022C11.2898 12.0688 11.6955 12.6523 12.0925 13.2233C12.1899 13.3635 12.2869 13.5029 12.3819 13.6412C13.3839 15.0994 14.25 16.5438 14.25 18.2289C14.25 19.908 13.3813 21.3536 12.4379 22.4213Z" stroke="currentColor" stroke-width="1.5"/>
</svg>
