<svg width="35" height="36" viewBox="0 0 35 36" fill="none" xmlns="http://www.w3.org/2000/svg">
<path d="M11.0999 24.0004C11.0999 23.669 10.8313 23.4004 10.4999 23.4004C10.1685 23.4004 9.8999 23.669 9.8999 24.0004V32.0004C9.8999 32.3318 10.1685 32.6004 10.4999 32.6004C10.8313 32.6004 11.0999 32.3318 11.0999 32.0004V24.0004Z" fill="currentColor" stroke="currentColor" stroke-width="0.2"/>
<path d="M15.1092 5H19.8908C22.1602 5 24 6.71368 24 8.82762V18H11V8.82762C11 6.71368 12.8398 5 15.1092 5Z" stroke="currentColor" stroke-width="1.40625"/>
<path d="M9.60424 18.2217H25.3958C26.1 18.2217 26.7379 18.6371 27.0227 19.2811L27.788 21.0119C28.308 22.1879 27.4469 23.5101 26.1611 23.5101H8.83894C7.55312 23.5101 6.69205 22.1879 7.21204 21.0119L7.97735 19.2811C8.26213 18.6371 8.90004 18.2217 9.60424 18.2217Z" stroke="currentColor" stroke-width="1.44231"/>
<path d="M25.0999 24.0004C25.0999 23.669 24.8313 23.4004 24.4999 23.4004C24.1685 23.4004 23.8999 23.669 23.8999 24.0004V32.0004C23.8999 32.3318 24.1685 32.6004 24.4999 32.6004C24.8313 32.6004 25.0999 32.3318 25.0999 32.0004V24.0004Z" fill="currentColor" stroke="currentColor" stroke-width="0.2"/>
</svg>
