<svg width="35" height="35" viewBox="0 0 35 35" fill="none" xmlns="http://www.w3.org/2000/svg">
<path d="M6.88636 9.17857H15.4926C15.4541 9.40051 15.4055 9.66172 15.3449 9.95602C15.1373 10.9652 14.7911 12.3578 14.2379 13.8878C13.1245 16.9671 11.2078 20.5063 7.99142 22.6628L7.23579 23.1694L7.87578 23.813L7.87611 23.8134L7.87658 23.8139L7.87689 23.8142L7.87725 23.8145L7.87749 23.8148L7.89004 23.8279C7.90233 23.8409 7.92226 23.8623 7.94875 23.8918C8.00175 23.9508 8.08079 24.042 8.17725 24.1633C8.37055 24.4063 8.63166 24.7671 8.89336 25.2277C9.33129 25.9984 9.76098 27.0309 9.89164 28.25H6.88636V9.17857ZM19.5074 9.17857H28.1136V28.25H25.1084C25.239 27.0309 25.6687 25.9984 26.1066 25.2277C26.3683 24.7671 26.6294 24.4063 26.8227 24.1633C26.9192 24.042 26.9982 23.9508 27.0513 23.8918C27.0777 23.8623 27.0977 23.8409 27.11 23.8279L27.1225 23.8148L27.1227 23.8145L27.1231 23.8142L27.1234 23.8139L27.1239 23.8134L27.1242 23.813L27.7642 23.1694L27.0086 22.6628C23.7922 20.5063 21.8755 16.9671 20.7621 13.8878C20.2089 12.3578 19.8627 10.9652 19.6551 9.95602C19.5945 9.66172 19.5459 9.40051 19.5074 9.17857ZM29.25 6.53571H5.75V5.75H29.25V6.53571Z" stroke="currentColor" stroke-width="1.5"/>
</svg>
