<svg width="35" height="35" viewBox="0 0 35 35" fill="none" xmlns="http://www.w3.org/2000/svg">
<path d="M12.6135 6.28121C12.6805 6.35636 12.7457 6.43304 12.809 6.51121M12.6135 6.28121L12.601 6.26762L12.809 6.51121M12.6135 6.28121L12.5389 6.34772C12.5391 6.34794 12.5393 6.34816 12.5395 6.34838M12.6135 6.28121L12.5401 6.34904L12.5395 6.34838M12.809 6.51121C12.9397 6.67012 13.1248 6.90116 13.3485 7.19912L12.809 6.51121ZM12.5395 6.34838C12.6052 6.42217 12.6691 6.49745 12.7314 6.57419L12.7318 6.57473C12.8617 6.73265 13.0458 6.96254 13.2685 7.25916C13.8787 8.0744 14.4417 8.92392 14.9547 9.80354L14.9549 9.80382C15.9789 11.5468 16.8008 13.4009 17.4046 15.3302L17.5 15.6352L17.5954 15.3302C18.1992 13.4009 19.0211 11.5468 20.0451 9.80382L20.0453 9.80354C20.5583 8.92389 21.1213 8.07436 21.7315 7.25914C21.9654 6.94793 22.2088 6.64394 22.4613 6.34758L22.4725 6.33545L22.4729 6.3358L22.4784 6.32841L22.4788 6.32801C22.5711 6.22475 22.6927 6.15197 22.8273 6.1193C22.9619 6.08662 23.1033 6.0956 23.2327 6.14503C23.3622 6.19447 23.4735 6.28203 23.5521 6.39615C23.6307 6.51026 23.6727 6.64553 23.6727 6.78407V16.5737L23.8641 16.6144C24.318 15.594 24.8812 14.6258 25.5437 13.7267L25.5439 13.7265C26.0105 13.0905 26.5432 12.5056 27.1331 11.9818C27.344 11.7972 27.5657 11.6253 27.797 11.4671C27.7973 11.4669 27.7975 11.4668 27.7977 11.4666L27.8379 11.4402H27.839L27.8627 11.4259C27.9665 11.3637 28.085 11.3301 28.206 11.3286C28.3271 11.327 28.4463 11.3575 28.5517 11.4171C28.6571 11.4766 28.7449 11.5629 28.8061 11.6674L28.8923 11.6168L28.8061 11.6674C28.8672 11.7718 28.8996 11.8906 28.9 12.0116V25.0795C28.9 26.0928 28.4975 27.0645 27.781 27.781C27.0645 28.4975 26.0928 28.9 25.0795 28.9H9.92045C8.90721 28.9 7.93546 28.4975 7.21899 27.781C6.50251 27.0645 6.1 26.0928 6.1 25.0795V12.0113C6.10001 11.8903 6.13214 11.7714 6.19313 11.6668C6.25411 11.5622 6.34176 11.4757 6.44712 11.4161C6.55248 11.3564 6.67178 11.3258 6.79283 11.3274C6.91389 11.3289 7.03237 11.3626 7.13617 11.4249L7.13602 11.4251L7.14292 11.4286L7.14362 11.4289L7.15726 11.438L7.15722 11.4381L7.16043 11.44C7.22679 11.4808 7.29129 11.5244 7.35373 11.5709L7.3544 11.5714C7.48123 11.6642 7.65659 11.7983 7.86719 11.9821C8.28888 12.351 8.85373 12.9167 9.45656 13.726C10.0127 14.4731 10.5997 15.4256 11.1361 16.6148L11.3273 16.5737V6.78407C11.3273 6.64553 11.3693 6.51026 11.4479 6.39615C11.5265 6.28204 11.6378 6.19447 11.7673 6.14503C11.8967 6.0956 12.0381 6.08662 12.1727 6.1193C12.3072 6.15194 12.4286 6.22459 12.5209 6.32767L12.5206 6.32793L12.5275 6.33545L12.5395 6.34838ZM21.2275 10.4941C20.0137 12.5691 18.6832 15.4909 18.1768 18.9071L18.1768 18.9072C18.1529 19.0697 18.0714 19.2181 17.9471 19.3254C17.8229 19.4326 17.6642 19.4917 17.5 19.4917C17.3358 19.4917 17.1771 19.4326 17.0529 19.3254C16.9286 19.2181 16.8471 19.0697 16.8232 18.9072L16.8232 18.9071C16.3168 15.4909 14.9852 12.5691 13.7736 10.4942L13.7735 10.494C13.49 10.0102 13.1915 9.53528 12.8784 9.07006L12.6955 8.79821V9.12589L12.6955 21.9432L12.6955 21.9438C12.6966 22.116 12.6328 22.2823 12.5168 22.4095C12.4008 22.5367 12.241 22.6154 12.0695 22.6301C11.8979 22.6447 11.7272 22.5941 11.5913 22.4884C11.4554 22.3826 11.3644 22.2296 11.3364 22.0597L11.3363 22.059C10.7022 18.375 9.43823 15.9924 8.3593 14.5433L8.35909 14.543C8.10633 14.206 7.86478 13.9169 7.64172 13.6749L7.56932 13.7416H7.56818H7.46818V13.7426V13.7817V25.0795C7.46818 25.7299 7.72655 26.3537 8.18644 26.8136C8.64633 27.2735 9.27007 27.5318 9.92045 27.5318H25.0795C25.7299 27.5318 26.3537 27.2735 26.8136 26.8136C27.2735 26.3537 27.5318 25.7299 27.5318 25.0795V13.7416V13.4846L27.3581 13.674C27.1353 13.9169 26.8937 14.2049 26.6408 14.5432L26.6407 14.5433C25.5618 15.9924 24.2978 18.3761 23.6637 22.059L23.6636 22.0597C23.6356 22.2296 23.5446 22.3826 23.4087 22.4884C23.2728 22.5941 23.1021 22.6447 22.9305 22.6301C22.759 22.6154 22.5993 22.5367 22.4832 22.4095C22.3672 22.2823 22.3034 22.116 22.3045 21.9438V21.9432V9.12589V8.79803L22.1216 9.07008C21.8435 9.48345 21.5392 9.95987 21.2275 10.4941ZM21.2275 10.4941L21.3138 10.5446L21.2274 10.4942C21.2275 10.4941 21.2275 10.4941 21.2275 10.4941Z" fill="currentColor" stroke="white" stroke-width="0.2"/>
</svg>
