<svg width="48" height="49" viewBox="0 0 48 49" fill="none" xmlns="http://www.w3.org/2000/svg">
<path d="M23.5889 37.8509L23.6667 37.8764L23.7445 37.8509C29.7518 35.8833 34.1667 29.4583 34.1667 22.5287V14.3629V14.1861L34 14.1272L23.75 10.5055L23.6667 10.4761L23.5834 10.5055L13.3334 14.1272L13.1667 14.1861V14.3629V22.5287C13.1667 29.4755 17.5816 35.8833 23.5889 37.8509ZM21.6966 25.4734L21.8733 25.6494L22.0497 25.473L29.1162 18.4065L31.1714 20.4617L21.8558 29.7773L16.1625 24.084L18.234 22.0271L21.6966 25.4734ZM10.25 12.2983L23.6667 7.267L37.0833 12.2982V22.5287C37.0833 31.0325 31.3534 38.949 23.6667 40.9088C15.98 38.949 10.25 31.0325 10.25 22.5287V12.2983Z" fill="currentColor" stroke="url(#paint0_linear_67_3223)" stroke-width="0.5"/>
<defs>
<linearGradient id="paint0_linear_67_3223" x1="10" y1="41.1667" x2="43.3333" y2="14.5" gradientUnits="userSpaceOnUse">
<stop stop-color="#F63853"/>
<stop offset="1" stop-color="#FCC049"/>
</linearGradient>
</defs>
</svg>
