<svg width="36" height="35" viewBox="0 0 36 35" fill="none" xmlns="http://www.w3.org/2000/svg">
<path d="M28.5 17.5C28.5 17.6705 28.4294 17.834 28.3037 17.9546C28.178 18.0751 28.0075 18.1429 27.8298 18.1429H8.17021C7.99246 18.1429 7.82199 18.0751 7.6963 17.9546C7.57061 17.834 7.5 17.6705 7.5 17.5C7.5 17.3295 7.57061 17.166 7.6963 17.0454C7.82199 16.9249 7.99246 16.8571 8.17021 16.8571H27.8298C28.0075 16.8571 28.178 16.9249 28.3037 17.0454C28.4294 17.166 28.5 17.3295 28.5 17.5ZM8.17021 11.2857H27.8298C28.0075 11.2857 28.178 11.218 28.3037 11.0974C28.4294 10.9769 28.5 10.8134 28.5 10.6429C28.5 10.4724 28.4294 10.3088 28.3037 10.1883C28.178 10.0677 28.0075 10 27.8298 10H8.17021C7.99246 10 7.82199 10.0677 7.6963 10.1883C7.57061 10.3088 7.5 10.4724 7.5 10.6429C7.5 10.8134 7.57061 10.9769 7.6963 11.0974C7.82199 11.218 7.99246 11.2857 8.17021 11.2857ZM27.8298 23.7143H8.17021C7.99246 23.7143 7.82199 23.782 7.6963 23.9026C7.57061 24.0231 7.5 24.1866 7.5 24.3571C7.5 24.5276 7.57061 24.6912 7.6963 24.8117C7.82199 24.9323 7.99246 25 8.17021 25H27.8298C28.0075 25 28.178 24.9323 28.3037 24.8117C28.4294 24.6912 28.5 24.5276 28.5 24.3571C28.5 24.1866 28.4294 24.0231 28.3037 23.9026C28.178 23.782 28.0075 23.7143 27.8298 23.7143Z" fill="currentColor"/>
</svg>
