<svg width="48" height="48" viewBox="0 0 48 48" fill="none" xmlns="http://www.w3.org/2000/svg">
<path d="M24 40.625C14.8325 40.625 7.375 33.1675 7.375 24C7.375 14.8325 14.8325 7.375 24 7.375C33.1675 7.375 40.625 14.8325 40.625 24C40.625 33.1675 33.1675 40.625 24 40.625ZM24 9.75C16.1388 9.75 9.75 16.1388 9.75 24C9.75 31.8612 16.1388 38.25 24 38.25C31.8612 38.25 38.25 31.8612 38.25 24C38.25 16.1388 31.8612 9.75 24 9.75Z" fill="currentColor"/>
<path d="M28.75 29.9375C28.5363 29.9375 28.3225 29.89 28.1325 29.7713L22.195 26.2088C22.0192 26.1031 21.874 25.9532 21.774 25.774C21.674 25.5949 21.6226 25.3927 21.625 25.1875V15.6875C21.625 15.0225 22.1475 14.5 22.8125 14.5C23.4775 14.5 24 15.0225 24 15.6875V24.5225L29.3675 27.7287C29.5886 27.8643 29.7595 28.0681 29.8543 28.3095C29.949 28.5509 29.9625 28.8165 29.8927 29.0663C29.8229 29.316 29.6736 29.5362 29.4674 29.6934C29.2612 29.8506 29.0093 29.9363 28.75 29.9375Z" fill="currentColor"/>
</svg>
