<svg width="48" height="48" viewBox="0 0 48 48" fill="none" xmlns="http://www.w3.org/2000/svg">
<path d="M31.9062 19.875C31.9062 20.1485 31.7976 20.4108 31.6042 20.6042C31.4108 20.7976 31.1485 20.9062 30.875 20.9062H17.125C16.8515 20.9062 16.5892 20.7976 16.3958 20.6042C16.2024 20.4108 16.0938 20.1485 16.0938 19.875C16.0938 19.6015 16.2024 19.3392 16.3958 19.1458C16.5892 18.9524 16.8515 18.8437 17.125 18.8437H30.875C31.1485 18.8437 31.4108 18.9524 31.6042 19.1458C31.7976 19.3392 31.9062 19.6015 31.9062 19.875ZM30.875 24.3437H17.125C16.8515 24.3437 16.5892 24.4524 16.3958 24.6458C16.2024 24.8392 16.0938 25.1015 16.0938 25.375C16.0938 25.6485 16.2024 25.9108 16.3958 26.1042C16.5892 26.2976 16.8515 26.4062 17.125 26.4062H30.875C31.1485 26.4062 31.4108 26.2976 31.6042 26.1042C31.7976 25.9108 31.9062 25.6485 31.9062 25.375C31.9062 25.1015 31.7976 24.8392 31.6042 24.6458C31.4108 24.4524 31.1485 24.3437 30.875 24.3437ZM45.6562 19.875V24C45.6562 25.3675 45.113 26.679 44.146 27.646C43.179 28.613 41.8675 29.1562 40.5 29.1562H39.3914C38.3258 31.6553 36.1584 33.8501 32.9719 35.6204C29.4003 37.6039 25.5812 38.5028 24.4881 38.7297C24.1663 38.7984 23.8337 38.7984 23.5119 38.7297C22.4239 38.5028 18.5997 37.6039 15.0281 35.6204C11.8416 33.8501 9.67422 31.6553 8.60859 29.1562H7.5C6.13248 29.1562 4.82097 28.613 3.85398 27.646C2.887 26.679 2.34375 25.3675 2.34375 24V19.875C2.34375 18.5075 2.887 17.1959 3.85398 16.229C4.82097 15.262 6.13248 14.7187 7.5 14.7187H7.90391C7.99276 14.3256 8.17891 13.9612 8.44528 13.6588C8.71166 13.3564 9.04972 13.1257 9.42844 12.9879L23.1784 7.9881C23.7092 7.79531 24.2908 7.79531 24.8216 7.9881L38.5716 12.9879C38.9503 13.1257 39.2883 13.3564 39.5547 13.6588C39.8211 13.9612 40.0072 14.3256 40.0961 14.7187H40.5C41.8675 14.7187 43.179 15.262 44.146 16.229C45.113 17.1959 45.6562 18.5075 45.6562 19.875ZM7.99328 27.0937C7.89395 26.5349 7.84391 25.9684 7.84375 25.4008V16.7812H7.5C6.67949 16.7812 5.89258 17.1072 5.31239 17.6874C4.7322 18.2676 4.40625 19.0545 4.40625 19.875V24C4.40625 24.8205 4.7322 25.6074 5.31239 26.1876C5.89258 26.7678 6.67949 27.0937 7.5 27.0937H7.99328ZM38.0938 25.4008V15.2498C38.0937 15.1792 38.0719 15.1103 38.0313 15.0524C37.9907 14.9946 37.9333 14.9507 37.8669 14.9267L24.1169 9.92685C24.0413 9.89955 23.9586 9.89955 23.8831 9.92685L10.1331 14.9267C10.0667 14.9507 10.0093 14.9946 9.96867 15.0524C9.92808 15.1103 9.90628 15.1792 9.90625 15.2498V25.4008C9.90429 26.2228 10.039 27.0395 10.305 27.8173C12.4569 34.1165 22.6508 36.4403 23.9347 36.7101C23.9778 36.7187 24.0222 36.7187 24.0653 36.7101C25.5005 36.4111 38.0938 33.5373 38.0938 25.4008ZM43.5938 19.875C43.5938 19.0545 43.2678 18.2676 42.6876 17.6874C42.1074 17.1072 41.3205 16.7812 40.5 16.7812H40.1562V25.4008C40.1561 25.9684 40.106 26.5349 40.0067 27.0937H40.5C41.3205 27.0937 42.1074 26.7678 42.6876 26.1876C43.2678 25.6074 43.5938 24.8205 43.5938 24V19.875Z" fill="currentColor"/>
</svg>
