<svg width="35" height="36" viewBox="0 0 35 36" fill="none" xmlns="http://www.w3.org/2000/svg">
<path d="M17.3965 30.4329L17.5 30.5316L17.6035 30.4329C20.9154 27.2755 23.3856 24.374 25.0288 21.7514C26.6712 19.1299 27.4937 16.7767 27.4937 14.7188C27.4937 12.0682 26.4408 9.52629 24.5666 7.6521C22.6925 5.77791 20.1505 4.725 17.5 4.725C14.8495 4.725 12.3075 5.77791 10.4334 7.6521C8.55916 9.52629 7.50625 12.0682 7.50625 14.7188C7.50625 16.7767 8.32884 19.1299 9.97121 21.7514C11.6144 24.374 14.0846 27.2755 17.3965 30.4329ZM17.5 33.1097C13.5453 29.5045 10.5811 26.1724 8.60223 23.1138C6.60617 20.0287 5.61875 17.2314 5.61875 14.7188C5.61875 11.5676 6.87052 8.5456 9.09869 6.31744C11.3269 4.08927 14.3489 2.8375 17.5 2.8375C20.6511 2.8375 23.6731 4.08927 25.9013 6.31744C28.1295 8.5456 29.3813 11.5676 29.3813 14.7188C29.3813 17.2314 28.3938 20.0287 26.3978 23.1138C24.4189 26.1724 21.4547 29.5045 17.5 33.1097Z" fill="currentColor" stroke="currentColor" stroke-width="0.3"/>
<path d="M17.5 18.15C18.41 18.15 19.2828 17.7885 19.9263 17.145C20.5697 16.5015 20.9312 15.6288 20.9312 14.7188C20.9312 13.8087 20.5697 12.936 19.9263 12.2925C19.2828 11.649 18.41 11.2875 17.5 11.2875C16.59 11.2875 15.7172 11.649 15.0737 12.2925C14.4303 12.936 14.0687 13.8087 14.0687 14.7188C14.0687 15.6288 14.4303 16.5015 15.0737 17.145C15.7172 17.7885 16.59 18.15 17.5 18.15ZM17.5 20.0375C16.0894 20.0375 14.7365 19.4771 13.7391 18.4797C12.7416 17.4822 12.1813 16.1294 12.1813 14.7188C12.1813 13.3081 12.7416 11.9553 13.7391 10.9578C14.7365 9.96037 16.0894 9.4 17.5 9.4C18.9106 9.4 20.2635 9.96037 21.2609 10.9578C22.2584 11.9553 22.8188 13.3081 22.8188 14.7188C22.8188 16.1294 22.2584 17.4822 21.2609 18.4797C20.2635 19.4771 18.9106 20.0375 17.5 20.0375Z" fill="currentColor" stroke="currentColor" stroke-width="0.3"/>
</svg>
