<svg width="48" height="48" viewBox="0 0 48 48" fill="none" xmlns="http://www.w3.org/2000/svg">
<path fill-rule="evenodd" clip-rule="evenodd" d="M28 8.16998C28.4526 8.00996 28.937 7.9609 29.4125 8.02691C29.8881 8.09293 30.3408 8.2721 30.7327 8.54938C31.1246 8.82665 31.4442 9.19393 31.6648 9.62036C31.8853 10.0468 32.0003 10.5199 32 11V21.15L33.056 19.83C33.5892 19.1693 34.3563 18.7393 35.1982 18.6291C36.04 18.5189 36.8919 18.737 37.5772 19.2381C38.2626 19.7392 38.7287 20.485 38.8789 21.3206C39.0291 22.1562 38.8519 23.0175 38.384 23.726L34.926 28.914C33.7476 30.6817 32.0995 32.0856 30.167 32.968L30.997 42.917C31.0085 43.0549 30.9912 43.1936 30.9463 43.3245C30.9014 43.4554 30.8299 43.5755 30.7362 43.6773C30.6425 43.7791 30.5286 43.8603 30.4019 43.9159C30.2752 43.9714 30.1384 44 30 44H18C17.8616 44 17.7248 43.9714 17.5981 43.9159C17.4714 43.8603 17.3575 43.7791 17.2638 43.6773C17.1701 43.5755 17.0986 43.4554 17.0537 43.3245C17.0088 43.1936 16.9915 43.0549 17.003 42.917L17.811 33.233C16.6634 32.6458 15.7002 31.753 15.0277 30.6532C14.3552 29.5533 13.9996 28.2891 14 27V13C13.9997 12.5199 14.1147 12.0468 14.3352 11.6204C14.5558 11.1939 14.8754 10.8267 15.2673 10.5494C15.6592 10.2721 16.1119 10.0929 16.5875 10.0269C17.063 9.9609 17.5474 10.01 18 10.17V8.99998C17.9999 8.51048 18.1195 8.02838 18.3485 7.59574C18.5774 7.16309 18.9088 6.79305 19.3136 6.51789C19.7185 6.24274 20.1845 6.07082 20.6711 6.01715C21.1576 5.96348 21.6499 6.02968 22.105 6.20998C22.2972 5.50973 22.7367 4.9029 23.3422 4.502C23.9476 4.1011 24.6779 3.93332 25.3976 4.02977C26.1173 4.12622 26.7777 4.48036 27.2562 5.02652C27.7347 5.57269 27.999 6.27384 28 6.99998V8.16998ZM25 5.99998C24.7348 5.99998 24.4804 6.10534 24.2929 6.29288C24.1054 6.48041 24 6.73477 24 6.99998V20H22V8.99998C22 8.73477 21.8946 8.48041 21.7071 8.29288C21.5196 8.10534 21.2652 7.99998 21 7.99998C20.7348 7.99998 20.4804 8.10534 20.2929 8.29288C20.1054 8.48041 20 8.73477 20 8.99998V20H18V13C18 12.7348 17.8946 12.4804 17.7071 12.2929C17.5196 12.1053 17.2652 12 17 12C16.7348 12 16.4804 12.1053 16.2929 12.2929C16.1054 12.4804 16 12.7348 16 13V27C15.9999 28.014 16.308 29.004 16.8834 29.8389C17.4588 30.6738 18.2744 31.3141 19.222 31.675C19.4245 31.7523 19.5964 31.8932 19.7118 32.0766C19.8272 32.2601 19.8799 32.476 19.862 32.692L19.087 42H28.913L28.113 32.409C28.0948 32.1923 28.1478 31.9756 28.2638 31.7918C28.3798 31.6079 28.5526 31.4668 28.756 31.39C30.5954 30.6942 32.1711 29.4403 33.262 27.804L36.72 22.617C36.9059 22.3374 36.9767 21.9969 36.9178 21.6663C36.859 21.3358 36.6748 21.0407 36.4038 20.8425C36.1328 20.6443 35.7958 20.5583 35.463 20.6023C35.1301 20.6464 34.8271 20.8171 34.617 21.079L31.781 24.625C31.6516 24.7869 31.475 24.9045 31.2758 24.9617C31.0765 25.0188 30.8645 25.0127 30.6689 24.944C30.4733 24.8754 30.3039 24.7477 30.184 24.5786C30.0642 24.4094 29.9999 24.2073 30 24V11C30 10.7348 29.8946 10.4804 29.7071 10.2929C29.5196 10.1053 29.2652 9.99998 29 9.99998C28.7348 9.99998 28.4804 10.1053 28.2929 10.2929C28.1054 10.4804 28 10.7348 28 11V20H26V6.99998C26 6.73477 25.8946 6.48041 25.7071 6.29288C25.5196 6.10534 25.2652 5.99998 25 5.99998Z" fill="currentColor"/>
<path d="M10 14H12V16H10V14ZM10 16V29C9.9995 30.289 10.355 31.5532 11.0273 32.653C11.6996 33.7528 12.6625 34.6457 13.81 35.233L13.246 42H15.254L15.862 34.693C15.8802 34.4768 15.8275 34.2607 15.7121 34.077C15.5967 33.8934 15.4246 33.7523 15.222 33.675C14.2744 33.3141 13.4588 32.6738 12.8834 31.8389C12.308 31.004 11.9999 30.014 12 29V16H10Z" fill="currentColor"/>
</svg>
