<svg width="35" height="35" viewBox="0 0 35 35" fill="none" xmlns="http://www.w3.org/2000/svg">
<path d="M9.31153 28.1575V20.1921C9.31153 19.5213 9.53611 18.9608 9.98528 18.5106C10.4354 18.0615 10.9959 17.8369 11.6667 17.8369H12.9574V14.8079H11.6667C10.9959 14.8079 10.4354 14.5829 9.98528 14.1327C9.53514 13.6826 9.31055 13.1221 9.31153 12.4513V9.03001C9.31153 8.35918 9.53611 7.79869 9.98528 7.34855C10.4354 6.89939 10.9959 6.6748 11.6667 6.6748H23.3334C24.0042 6.6748 24.5647 6.89939 25.0149 7.34855C25.465 7.79772 25.6896 8.35821 25.6886 9.03001V12.4513C25.6886 13.1221 25.464 13.6826 25.0149 14.1327C24.5657 14.5829 24.0052 14.8079 23.3334 14.8079H22.0428V17.8369H23.3334C24.0042 17.8369 24.5647 18.0615 25.0149 18.5106C25.465 18.9598 25.6896 19.5203 25.6886 20.1921V28.1575C25.6886 28.3646 25.6191 28.5377 25.4801 28.6767C25.341 28.8157 25.1675 28.8857 24.9594 28.8867C24.7524 28.8867 24.5793 28.8167 24.4403 28.6767C24.3012 28.5367 24.2312 28.3636 24.2303 28.1575V24.5117H10.7699V28.1575C10.7699 28.3646 10.6999 28.5377 10.5599 28.6767C10.4199 28.8157 10.2468 28.8857 10.0407 28.8867C9.83264 28.8867 9.6591 28.8167 9.52007 28.6767C9.38104 28.5367 9.31153 28.3636 9.31153 28.1575ZM11.6667 13.3496H23.3334C23.557 13.3496 23.7626 13.2563 23.9503 13.0696C24.1369 12.882 24.2303 12.6758 24.2303 12.4513V9.03001C24.2303 8.8064 24.1369 8.60078 23.9503 8.41314C23.7636 8.22647 23.558 8.13314 23.3334 8.13314H11.6667C11.4431 8.13314 11.2375 8.22647 11.0499 8.41314C10.8632 8.60078 10.7699 8.8064 10.7699 9.03001V12.4513C10.7699 12.6758 10.8632 12.882 11.0499 13.0696C11.2365 13.2563 11.4422 13.3496 11.6667 13.3496ZM14.4157 17.8369H20.5844V14.8079H14.4157V17.8369ZM10.7699 23.0533H24.2303V20.1921C24.2303 19.9685 24.1369 19.7629 23.9503 19.5752C23.7636 19.3886 23.558 19.2952 23.3334 19.2952H11.6667C11.4431 19.2952 11.2375 19.3886 11.0499 19.5752C10.8632 19.7619 10.7699 19.9675 10.7699 20.1921V23.0533Z" fill="currentColor"/>
</svg>
