<svg width="35" height="35" viewBox="0 0 35 35" fill="none" xmlns="http://www.w3.org/2000/svg">
<path d="M27.675 7.40834V26.675C27.675 27.3137 27.4213 27.9263 26.9696 28.378C26.518 28.8296 25.9054 29.0834 25.2667 29.0834H8.40834C7.76961 29.0834 7.15704 28.8296 6.70539 28.378C6.25373 27.9263 6 27.3137 6 26.675V7.40834C6 6.7696 6.25373 6.15704 6.70539 5.70538C7.15704 5.25373 7.76961 5 8.40834 5H25.2667C25.9054 5 26.518 5.25373 26.9696 5.70538C27.4213 6.15704 27.675 6.7696 27.675 7.40834Z" stroke="currentColor" stroke-width="1.5" stroke-linecap="round" stroke-linejoin="round"/>
<path d="M6 12.2247H15.6333V9.81641M27.675 12.2247H18.0417V9.81641" stroke="currentColor" stroke-width="1.5" stroke-linecap="round" stroke-linejoin="round"/>
</svg>
