<svg width="30" height="30" viewBox="0 0 30 30" fill="none" xmlns="http://www.w3.org/2000/svg">
<path d="M15 19.3886C11.7106 19.3886 9.03455 16.9316 9.03455 13.9112C9.03455 13.6898 9.05291 13.4591 9.09244 13.1856C9.61959 7.44399 14.5269 2.22974 14.7357 2.01086C14.8045 1.93844 14.9001 1.89746 15 1.89746C15.1001 1.89746 15.1957 1.93844 15.2645 2.01086C15.4731 2.22974 20.375 7.43835 20.9089 13.1953C20.9474 13.4644 20.9654 13.6923 20.9654 13.9112C20.9654 16.9316 18.2893 19.3886 15 19.3886ZM15 3.18164C13.9683 4.35679 10.5569 8.51373 10.1196 13.2715C10.083 13.5283 10.1196 13.7254 10.1196 13.9112C10.1196 16.5287 12.1133 18.1816 15 18.1816C17.8867 18.1816 19.5455 16.7082 19.5455 14.0907C19.5455 13.905 19.5799 13.5094 19.5455 13.2715C19.1061 8.49484 16.0315 4.35679 15 3.18164Z" fill="currentColor"/>
<path d="M15.0001 17.1005C13.0931 17.1005 11.5416 15.67 11.5416 13.9115C11.5416 13.7097 11.7051 13.5464 11.9067 13.5464C12.1083 13.5464 12.2718 13.7097 12.2718 13.9115C12.2718 15.2671 13.4956 16.3703 15.0001 16.3703C15.2017 16.3703 15.3652 16.5336 15.3652 16.7354C15.3653 16.9372 15.2018 17.1005 15.0001 17.1005Z" fill="currentColor"/>
<path d="M15 25.0071C14.9425 25.0071 14.8849 24.9935 14.8323 24.9659L1.69734 18.1679C1.57608 18.1051 1.5 17.9804 1.5 17.8438C1.5 17.7073 1.57608 17.5821 1.69734 17.5197L7.23198 14.6555C7.41114 14.5628 7.63152 14.633 7.72403 14.8116C7.81667 14.991 7.74665 15.2113 7.5675 15.3037L3.1818 17.8438L15 23.6364L26.3636 17.7273L22.4135 15.2936C22.2344 15.201 22.1643 14.981 22.257 14.8016C22.3497 14.623 22.5699 14.5527 22.749 14.6454L28.3025 17.5196C28.4237 17.582 28.5 17.7072 28.5 17.8438C28.5 17.9803 28.4237 18.1051 28.3025 18.1678L15.1679 24.9659C15.1153 24.9935 15.0577 25.0071 15 25.0071Z" fill="currentColor"/>
<path d="M15 28.1023C14.9425 28.1023 14.8849 28.089 14.8323 28.0614L1.69734 21.2637C1.57608 21.2013 1.5 21.0762 1.5 20.9396C1.5 20.8031 1.57608 20.6782 1.69734 20.6156L4.68755 19.0677C4.8669 18.9751 5.08691 19.0453 5.17962 19.2239C5.27226 19.4032 5.20224 19.6233 5.02309 19.7159L3.1818 20.9396L15.0001 26.818L26.8182 20.9397L26.3636 20.4544C26.1843 20.3617 26.3636 19.9999 26.3636 19.9999C26.456 19.8212 26.8468 19.8618 27.0263 19.9549L28.3028 20.6156C28.424 20.6784 28.5 20.8031 28.5 20.9397C28.5 21.0762 28.424 21.2014 28.3028 21.2638L15.1679 28.0614C15.1153 28.089 15.0577 28.1023 15 28.1023Z" fill="currentColor"/>
<path d="M22.8982 8.65873C22.6965 8.65873 22.5331 8.4954 22.5331 8.29363V5.7738C22.5331 5.57197 22.6966 5.40869 22.8982 5.40869C23.0998 5.40869 23.2633 5.57202 23.2633 5.7738V8.29363C23.2633 8.4954 23.0998 8.65873 22.8982 8.65873Z" fill="currentColor"/>
<path d="M6.3651 9.25004C6.16345 9.25004 6 9.08671 6 8.88494V6.3651C6 6.16328 6.1635 6 6.3651 6C6.56676 6 6.73021 6.16333 6.73021 6.3651V8.88494C6.73021 9.08671 6.56671 9.25004 6.3651 9.25004Z" fill="currentColor"/>
</svg>
