<svg width="35" height="35" viewBox="0 0 35 35" fill="none" xmlns="http://www.w3.org/2000/svg">
<path d="M30.5334 18.3937H30.3646L30.3362 18.5601C30.0836 20.0419 29.3155 21.3867 28.1674 22.3569C27.0194 23.3272 25.5653 23.8604 24.0622 23.8625H18.5938H18.3937V24.0625V27.3438V27.5438H18.5938H21.875C22.9823 27.5438 24.0442 27.9836 24.8272 28.7666C25.6101 29.5495 26.05 30.6115 26.05 31.7188C26.05 31.9558 25.9558 32.1831 25.7882 32.3507C25.6206 32.5183 25.3933 32.6125 25.1562 32.6125C24.9192 32.6125 24.6919 32.5183 24.5243 32.3507C24.3567 32.1831 24.2625 31.9558 24.2625 31.7188C24.2625 31.0855 24.011 30.4783 23.5632 30.0305C23.1155 29.5828 22.5082 29.3312 21.875 29.3312H18.5938H18.3937V29.5312V31.7188C18.3937 31.9558 18.2996 32.1831 18.132 32.3507C17.9644 32.5183 17.737 32.6125 17.5 32.6125C17.263 32.6125 17.0356 32.5183 16.868 32.3507C16.7004 32.1831 16.6062 31.9558 16.6062 31.7188V29.5312V29.3312H16.4062H13.125C12.4918 29.3312 11.8845 29.5828 11.4368 30.0305C10.989 30.4783 10.7375 31.0855 10.7375 31.7188C10.7375 31.9558 10.6433 32.1831 10.4757 32.3507C10.3081 32.5183 10.0808 32.6125 9.84375 32.6125C9.60671 32.6125 9.37938 32.5183 9.21177 32.3507C9.04416 32.1831 8.95 31.9558 8.95 31.7188C8.95 30.6115 9.38986 29.5495 10.1728 28.7666C10.9558 27.9836 12.0177 27.5438 13.125 27.5438H16.4062H16.6062V27.3438V24.0625V23.8625H16.4062H10.9378C9.43465 23.8604 7.98063 23.3272 6.83258 22.3569C5.68454 21.3867 4.91636 20.0419 4.66376 18.5601L4.63539 18.3937H4.4666H2.1875C1.95046 18.3937 1.72313 18.2996 1.55552 18.132C1.38791 17.9644 1.29375 17.737 1.29375 17.5C1.29375 17.263 1.38791 17.0356 1.55552 16.868C1.72313 16.7004 1.95046 16.6062 2.1875 16.6062H5.46875C5.70579 16.6062 5.93312 16.7004 6.10073 16.868C6.26834 17.0356 6.3625 17.263 6.3625 17.5C6.3625 18.7134 6.84451 19.877 7.70249 20.735C8.56047 21.593 9.72413 22.075 10.9375 22.075H24.0625C25.2759 22.075 26.4395 21.593 27.2975 20.735C28.1555 19.877 28.6375 18.7134 28.6375 17.5C28.6375 17.263 28.7317 17.0356 28.8993 16.868C29.0669 16.7004 29.2942 16.6062 29.5312 16.6062H32.8125C33.0495 16.6062 33.2769 16.7004 33.4445 16.868C33.6121 17.0356 33.7062 17.263 33.7062 17.5C33.7062 17.737 33.6121 17.9644 33.4445 18.132C33.2769 18.2996 33.0495 18.3937 32.8125 18.3937H30.5334ZM10.7395 17.4717L10.7069 17.7H10.9375H24.0625H24.2931L24.2605 17.4717L22.3847 4.3467L22.3602 4.175H22.1867H12.8119H12.6384L12.6139 4.34672L10.7395 17.4717ZM9.4357 18.8018L9.28457 18.9328L9.43569 18.8018C9.24926 18.5868 9.1112 18.3342 9.03083 18.0611C8.95047 17.7881 8.92968 17.501 8.96987 17.2193L10.8455 4.09512C10.8455 4.09496 10.8456 4.09481 10.8456 4.09466C10.9153 3.62177 11.1521 3.1895 11.5132 2.87629C11.8743 2.56306 12.3357 2.38965 12.8137 2.3875H22.1863C22.6643 2.38965 23.1257 2.56306 23.4868 2.87629C23.8479 3.18955 24.0848 3.6219 24.1544 4.09487C24.1544 4.09495 24.1545 4.09504 24.1545 4.09512L26.0301 17.2193C26.0301 17.2193 26.0301 17.2193 26.0301 17.2193C26.0703 17.5012 26.0495 17.7884 25.9691 18.0615C25.8887 18.3346 25.7505 18.5873 25.5639 18.8024C25.3773 19.0174 25.1467 19.1899 24.8877 19.3081C24.6286 19.4263 24.3472 19.4875 24.0625 19.4875H10.9375C10.6527 19.4875 10.3711 19.4263 10.112 19.308C9.85292 19.1897 9.62227 19.017 9.4357 18.8018Z" fill="currentColor" stroke="white" stroke-width="0.4"/>
</svg>
