<svg width="35" height="36" viewBox="0 0 35 36" fill="none" xmlns="http://www.w3.org/2000/svg">
<path d="M7.0999 24.0004C7.0999 23.669 6.83127 23.4004 6.4999 23.4004C6.16853 23.4004 5.8999 23.669 5.8999 24.0004V27.0004C5.8999 27.3318 6.16853 27.6004 6.4999 27.6004C6.83127 27.6004 7.0999 27.3318 7.0999 27.0004V24.0004Z" fill="currentColor" stroke="currentColor" stroke-width="0.2"/>
<path d="M29.9034 9.97221L28.116 18H6.8841L5.09663 9.97221C4.52693 7.41365 6.54839 5 9.26091 5H17.5H25.7391C28.4516 5 30.473 7.41365 29.9034 9.97221Z" stroke="currentColor" stroke-width="1.40625"/>
<path d="M4.50004 18.2217H30.5C32.0347 18.2217 33.2788 19.4658 33.2788 21.0005C33.2788 22.5352 32.0347 23.7793 30.5 23.7793H4.50004C2.96533 23.7793 1.72119 22.5352 1.72119 21.0005C1.72119 19.4658 2.96533 18.2217 4.50004 18.2217Z" stroke="currentColor" stroke-width="1.44231"/>
<path d="M29.0999 24.0004C29.0999 23.669 28.8313 23.4004 28.4999 23.4004C28.1685 23.4004 27.8999 23.669 27.8999 24.0004V27.0004C27.8999 27.3318 28.1685 27.6004 28.4999 27.6004C28.8313 27.6004 29.0999 27.3318 29.0999 27.0004V24.0004Z" fill="currentColor" stroke="currentColor" stroke-width="0.2"/>
</svg>
