<svg width="35" height="35" viewBox="0 0 35 35" fill="none" xmlns="http://www.w3.org/2000/svg">
<path d="M2.91675 23.3337V27.7087M5.83341 13.1253V10.2087C5.83341 9.43511 6.14071 8.69324 6.68769 8.14626C7.23467 7.59928 7.97653 7.29199 8.75008 7.29199H26.2501C27.0236 7.29199 27.7655 7.59928 28.3125 8.14626C28.8595 8.69324 29.1667 9.43511 29.1667 10.2087V13.1253" stroke="currentColor" stroke-width="1.5" stroke-linecap="round" stroke-linejoin="round"/>
<path d="M32.0834 23.3333V27.7083M29.1667 13.125C28.3932 13.125 27.6513 13.4323 27.1044 13.9793C26.5574 14.5263 26.2501 15.2681 26.2501 16.0417V18.9583H8.75008V16.0417C8.75008 15.2681 8.44279 14.5263 7.89581 13.9793C7.34883 13.4323 6.60696 13.125 5.83341 13.125C5.05987 13.125 4.318 13.4323 3.77102 13.9793C3.22404 14.5263 2.91675 15.2681 2.91675 16.0417V24.7917H32.0834V16.0417C32.0834 15.2681 31.7761 14.5263 31.2291 13.9793C30.6822 13.4323 29.9403 13.125 29.1667 13.125Z" stroke="currentColor" stroke-width="1.5" stroke-linecap="round" stroke-linejoin="round"/>
</svg>
